<!DOCTYPE svg PUBLIC "-//W3C//DTD SVG 1.1//EN" "http://www.w3.org/Graphics/SVG/1.1/DTD/svg11.dtd">
<!-- Uploaded to: SVG Repo, www.svgrepo.com, Transformed by: SVG Repo Mixer Tools -->
<svg fill="#000000" height="800px" width="800px" version="1.1" id="Layer_1" xmlns="http://www.w3.org/2000/svg" xmlns:xlink="http://www.w3.org/1999/xlink" viewBox="0 0 512 512" xml:space="preserve" stroke="#000000">
<g id="SVGRepo_bgCarrier" stroke-width="0"/>
<g id="SVGRepo_tracerCarrier" stroke-linecap="round" stroke-linejoin="round"/>
<g id="SVGRepo_iconCarrier"> <g> <g> <g> <path d="M384,0H128c-11.782,0-21.333,9.551-21.333,21.333v469.333c0,11.782,9.551,21.333,21.333,21.333h256 c11.782,0,21.333-9.551,21.333-21.333V21.333C405.333,9.551,395.782,0,384,0z M149.333,106.667h213.333v234.667H149.333V106.667z M362.667,42.667V64H149.333V42.667H362.667z M149.333,469.333V384h213.333v85.333H149.333z"/> <path d="M256,405.333c-11.776,0-21.333,9.557-21.333,21.333S244.224,448,256,448c11.776,0,21.333-9.557,21.333-21.333 S267.776,405.333,256,405.333z"/> <path d="M207.085,185.752l21.333-21.333c8.331-8.331,8.331-21.839,0-30.17s-21.839-8.331-30.17,0l-21.333,21.333 c-8.331,8.331-8.331,21.839,0,30.17C185.246,194.083,198.754,194.083,207.085,185.752z"/> <path d="M292.418,155.582c-8.331-8.331-21.839-8.331-30.17,0l-64,64c-8.331,8.331-8.331,21.839,0,30.17 c8.331,8.331,21.839,8.331,30.17,0l64-64C300.749,177.42,300.749,163.913,292.418,155.582z"/> </g> </g> </g> </g>
</svg>